<svg xmlns="http://www.w3.org/2000/svg" xmlns:xlink="http://www.w3.org/1999/xlink" width="1922.864" height="666" viewBox="0 0 1922.864 666">
  <defs>
    <clipPath id="clip-path">
      <rect id="Rectangle_360" data-name="Rectangle 360" width="291.509" height="512.119" fill="none"/>
    </clipPath>
  </defs>
  <g id="Delivery" transform="translate(2.484 0.367)">
    <g id="Group_424" data-name="Group 424" transform="translate(-1 4)">
      
    </g>
    <g id="Group_442" data-name="Group 442">
      <ellipse id="Ellipse_62" data-name="Ellipse 62" cx="247.672" cy="20.813" rx="247.672" ry="20.813" transform="translate(1211.031 583.859)" fill="#d4d4d4" style="mix-blend-mode: multiply;isolation: isolate"/>
      <g id="Group_430" data-name="Group 430" transform="translate(1069.415 121.354)">
        <g id="Group_425" data-name="Group 425" transform="translate(111.341 86.501)">
          <path id="Path_2433" data-name="Path 2433" d="M431.725,344.562c6.718-9.349-2.426-26.839-3.428-28.756-5.246-10.033-9.977-9.862-11.344-16.886-2.326-11.949,10.451-17.175,8.444-27.435-2.2-11.257-18.44-9.366-25.589-24.01-5.226-10.7,1.548-15.6-3.428-28.756-3.278-8.664-12.592-23.4-25.589-22.689-13.284.728-24.352,17.26-22.162,28.491s16.814,13.07,17.145,23.745c.259,8.264-8.42,9.942-8.442,18.2-.035,12.7,20.465,17.677,19.521,28.23-.687,7.663-11.731,7.679-13.984,16.092-3.324,12.414,15.651,31.352,36.142,37.2C402.052,348.858,424.29,354.906,431.725,344.562Z" transform="translate(-348.352 -196.006)" fill="#249431"/>
          <path id="Path_2434" data-name="Path 2434" d="M360.184,203.713S372.055,223.5,373.9,242.229s7.385,16.886,11.342,34.033,0,31.657,10.814,41.683,17.41,32.452,17.41,32.452" transform="translate(-338.274 -189.441)" fill="none" stroke="#2fbf40" stroke-miterlimit="10" stroke-width="1"/>
        </g>
        <g id="Group_426" data-name="Group 426" transform="translate(434.168 24.675)">
          <path id="Path_2435" data-name="Path 2435" d="M566.082,322.527c10.783-4.035,12.907-23.656,13.14-25.806,1.22-11.255-2.807-13.745-.039-20.341,4.713-11.227,18.238-8.464,22.275-18.108,4.429-10.581-10.118-18.038-7.918-34.183,1.607-11.8,9.961-12.1,13.142-25.808,2.094-9.024,2.548-26.45-8.651-33.087-11.446-6.781-29.837.8-34.263,11.357s6.707,20.212,1.048,29.269c-4.381,7.013-12.527,3.581-17.14,10.435-7.092,10.54,7.181,26.071.528,34.316-4.831,5.989-14.02-.139-20.569,5.6-9.668,8.47-4.427,34.761,9.351,51.015C539.032,309.6,554.152,326.99,566.082,322.527Z" transform="translate(-522.689 -162.618)" fill="#249431"/>
          <path id="Path_2436" data-name="Path 2436" d="M576.009,170.245s-1.137,23.045-10.018,39.64-3.25,18.14-9.5,34.592-17.6,26.311-14.19,40.659-3.576,36.651-3.576,36.651" transform="translate(-509.028 -156.121)" fill="none" stroke="#2fbf40" stroke-miterlimit="10" stroke-width="1"/>
        </g>
        <g id="Group_427" data-name="Group 427" transform="translate(0 234.244)">
          <path id="Path_2437" data-name="Path 2437" d="M512.182,395.085c-1.335-17.293-28.852-28.569-31.868-29.806-15.782-6.466-21.069-1.678-29.463-8.442-14.282-11.512-4.631-29.937-16.908-39.811-13.466-10.833-30.339,7.109-52.793-2.82-16.41-7.259-13.357-19.477-31.868-29.807-12.186-6.8-37.225-14.74-51.512-1.3-14.6,13.736-11.3,43.531,2.124,54.345s32.061-1.265,42.81,10.712c8.32,9.272-.052,19.63,7.944,29.17,12.294,14.671,40.742.5,49.9,13.575,6.65,9.5-6.061,20.238-.489,32.118,8.222,17.532,48.471,20.932,77.758,7.775C482.164,428.842,513.66,414.223,512.182,395.085Z" transform="translate(-288.224 -275.792)" fill="#2fbf40"/>
          <path id="Path_2438" data-name="Path 2438" d="M300.519,288.88s32.889,11.273,53.2,31.065,24.9,12.284,46.11,28.2,30.733,36.479,52.928,37.531,51.565,20.488,51.565,20.488" transform="translate(-277.752 -264.644)" fill="none" stroke="#249431" stroke-miterlimit="10" stroke-width="1"/>
          <path id="Path_2439" data-name="Path 2439" d="M477.071,410.2c1.048-.47,3.679-1.683,7.037-3.509-17.392-.5-59.2,1.148-70.97-20.414-5.357-9.809-1.224-18.436-9.333-24.887-10.279-8.177-22.637,1.131-37.775-8-7.5-4.524-11.736-11.2-14.221-15.11-8.461-13.329-4.268-19.584-10.666-25.776-8.266-8-18.579-.767-36.887-5.777a54.406,54.406,0,0,1-15.158-6.763c1.881,6.955,5.34,13.09,10.051,16.884,13.416,10.8,32.063-1.265,42.81,10.712,8.32,9.272-.052,19.63,7.944,29.17,12.294,14.671,40.742.5,49.9,13.575,6.65,9.5-6.061,20.238-.489,32.118C407.535,419.961,447.784,423.36,477.071,410.2Z" transform="translate(-287.479 -255.2)" fill="#249431"/>
        </g>
        <g id="Group_428" data-name="Group 428" transform="translate(45.252 119.399)">
          <path id="Path_2440" data-name="Path 2440" d="M479.476,410.5c6.5-16.084-13.134-38.42-15.286-40.87-11.26-12.81-18.125-10.871-22.634-20.665-7.674-16.662,9.164-28.872,2.561-43.175-7.244-15.692-30.335-7.125-46.031-26.006-11.47-13.8-3.3-23.384-15.286-40.87-7.892-11.512-26.787-29.759-45.56-24.074-19.186,5.809-29.483,33.961-22.267,49.619s29.28,13.127,33.579,28.633c3.329,12-8.775,17.56-5.859,29.661,4.487,18.608,36.27,18.566,38.655,34.35,1.733,11.462-14.427,15.431-14.721,28.55-.433,19.36,34.1,40.3,66.187,41.546C437.577,427.387,472.288,428.3,479.476,410.5Z" transform="translate(-312.661 -213.772)" fill="#2fbf40"/>
          <path id="Path_2441" data-name="Path 2441" d="M328.265,225.713S352.706,250.437,362.1,277.2s16.84,22.078,28.756,45.768,11.3,46.342,30.715,57.154S458.642,421.4,458.642,421.4" transform="translate(-299.371 -203.601)" fill="none" stroke="#249431" stroke-miterlimit="10" stroke-width="1"/>
          <path id="Path_2442" data-name="Path 2442" d="M432.812,412.9c1.148.046,4.044.13,7.863-.013-15.353-8.187-53.53-25.3-54.486-49.847-.435-11.168,7.1-17.055,2.709-26.441-5.568-11.9-20.778-9.055-30.276-23.965-4.707-7.388-5.533-15.247-6.018-19.858-1.65-15.7,4.889-19.44,1.911-27.83-3.846-10.84-16.3-8.951-30.468-21.58a54.448,54.448,0,0,1-10.568-12.8c-1.407,7.064-1.039,14.1,1.492,19.591,7.211,15.643,29.28,13.127,33.579,28.633,3.329,12-8.775,17.56-5.859,29.661,4.487,18.606,36.27,18.566,38.655,34.35,1.733,11.462-14.427,15.431-14.721,28.55C366.192,390.712,400.728,411.657,432.812,412.9Z" transform="translate(-312.659 -199.467)" fill="#249431"/>
        </g>
        <g id="Group_429" data-name="Group 429" transform="translate(456.04 0)">
          <path id="Path_2443" data-name="Path 2443" d="M588.559,392.932c17.925-3.266,26.728-33.237,27.693-36.522,5.048-17.19-.528-22.2,5.633-31.7,10.481-16.169,30.778-8.079,39.766-21.975,9.859-15.242-10.712-30.93-2.767-55.465,5.807-17.93,18.9-16.064,27.693-36.522,5.789-13.47,11.373-40.492-4.216-53.963-15.93-13.768-46.7-7.1-56.55,8.1s4.791,33.363-6.559,45.888c-8.788,9.7-20.517,2.072-29.62,11.457-14,14.432,3.889,42.621-8.783,53.606-9.2,7.975-21.8-4.142-33.611,2.965-17.429,10.488-16.625,52.908.291,82.086C550.039,365.221,568.723,396.547,588.559,392.932Z" transform="translate(-534.501 -149.292)" fill="#2fbf40"/>
          <path id="Path_2444" data-name="Path 2444" d="M651.793,161.79s-8.222,35.583-26.7,58.946-10.14,27.348-24.476,51.228-34.789,36.061-33.485,59.365S551.3,387.424,551.3,387.424" transform="translate(-520.188 -138.647)" fill="none" stroke="#249431" stroke-miterlimit="10" stroke-width="1"/>
          <path id="Path_2445" data-name="Path 2445" d="M547.528,359.387c.605,1.044,2.157,3.663,4.429,6.972C550.6,348.134,544.351,304.633,565.6,290c9.67-6.659,19.13-3.274,24.995-12.446,7.431-11.623-3.633-23.528,4.27-40.335,3.915-8.327,10.427-13.473,14.247-16.493,13.01-10.283,20-6.579,25.778-13.934,7.462-9.5-1.209-19.493,2.044-39.164a57.151,57.151,0,0,1,5.426-16.569c-7.062,2.718-13.1,7-16.553,12.329-9.838,15.186,4.791,33.363-6.559,45.888-8.788,9.7-20.517,2.072-29.62,11.457-14,14.432,3.889,42.621-8.783,53.606-9.2,7.975-21.8-4.142-33.611,2.965C529.809,287.789,530.613,330.209,547.528,359.387Z" transform="translate(-534.501 -147.789)" fill="#249431"/>
        </g>
      </g>
      <g id="Group_441" data-name="Group 441" transform="translate(1225.28 38.707)">
        <path id="Path_2446" data-name="Path 2446" d="M549.085,226.319a5.223,5.223,0,0,0-2.226,7.292c4.179,8.716,11.557,45.645,17.13,49.986,6.324,4.926,28.409,4.065,39.061,4.05l2.45-6.161s-26.606-7.6-33.057-6.983C572.443,274.5,564.426,217.217,549.085,226.319Z" transform="translate(-224.377 -1.874)" fill="#fca465"/>
        <path id="Path_2447" data-name="Path 2447" d="M569.62,235.576c3.574,10.3,3.2,21.691,3.2,21.691s-13.825,5.677-21.023,3.126l-5.99-29.654c-2.111-5.268,10.879-.583,10.879-.583C562.335,226.1,567.339,229.006,569.62,235.576Z" transform="translate(-224.893 0.594)" fill="#fff"/>
        <path id="Path_2448" data-name="Path 2448" d="M588.368,255.3s13.342,2.37,13.451,3.522.37,12.186.37,12.186-3.25.5-5.9-9.144c0,0-12.647,3.713-21.119.243l3.737-6.426Z" transform="translate(-199.688 23.65)" fill="#fca465"/>
        <g id="Group_439" data-name="Group 439" transform="translate(0 0)">
          <g id="Group_434" data-name="Group 434" transform="translate(2.365)">
            <rect id="Rectangle_358" data-name="Rectangle 358" width="321.054" height="568.019" rx="4.282" fill="#4d483d"/>
            <rect id="Rectangle_359" data-name="Rectangle 359" width="291.509" height="512.119" transform="translate(14.772 19.404)" fill="#d9cfbd"/>
            <g id="Group_433" data-name="Group 433" transform="translate(14.772 19.404)">
              <g id="Group_432" data-name="Group 432" clip-path="url(#clip-path)">
                <g id="Group_431" data-name="Group 431" transform="translate(15.421 117.921)">
                  <path id="Path_2449" data-name="Path 2449" d="M392.635,338.013l72.086,11.912-17.979-65.356-26,10.538-25.3-29.357Z" transform="translate(-387.716 -104.778)" fill="#ebe0cc"/>
                  <path id="Path_2450" data-name="Path 2450" d="M399.03,278.651l23.189,20.324,54.811-23.335L459.462,250.8l-61.135-9.033Z" transform="translate(-382.868 -125.206)" fill="#ebe0cc"/>
                  <path id="Path_2451" data-name="Path 2451" d="M432.1,287.339l47.784-24.84,17.568,54.2-55.679,29.87Z" transform="translate(-354.101 -107.548)" fill="#ebe0cc"/>
                  <path id="Path_2452" data-name="Path 2452" d="M461.892,300.986,436.655,257.2l47.782-45.918S526,281.238,523.888,281.238,461.892,300.986,461.892,300.986Z" transform="translate(-350.222 -151.174)" fill="#ebe0cc"/>
                  <path id="Path_2453" data-name="Path 2453" d="M458.2,258.355l-53.405-5.269-14.054-33.873,48.486-7.527,35.135,8.28Z" transform="translate(-389.332 -150.827)" fill="#ebe0cc"/>
                  <path id="Path_2454" data-name="Path 2454" d="M466.254,265.78l13.351,51.186,26.7,13.549,28.811,3.011-23.892-77.532Z" transform="translate(-325.012 -113.088)" fill="#ebe0cc"/>
                  <path id="Path_2455" data-name="Path 2455" d="M499.6,236.554l-52-12.044-57.621,6.775L394.9,181.6l70.27,12.044,55.513,29.357Z" transform="translate(-389.978 -176.449)" fill="#ebe0cc"/>
                  <path id="Path_2456" data-name="Path 2456" d="M447.486,192.29l33.056,23.834,76.283-34.729Z" transform="translate(-340.997 -176.628)" fill="#ebe0cc"/>
                  <path id="Path_2457" data-name="Path 2457" d="M473.576,238.745l29.53,68.1,20,2.724,16.583,80.354L579.1,360.637,569.567,178.82Z" transform="translate(-318.775 -178.82)" fill="#ebe0cc"/>
                  <path id="Path_2458" data-name="Path 2458" d="M394.62,309.736,463.275,325.4l-41.06,83.758-31.331,6.129Z" transform="translate(-389.207 -67.314)" fill="#ebe0cc"/>
                  <path id="Path_2459" data-name="Path 2459" d="M453.408,337.886c-2.542,3.405-37.505,85.121-37.505,85.121s115.059-3.405,109.339-14.981-13.351-108.954-13.351-108.954Z" transform="translate(-367.898 -76.397)" fill="#ebe0cc"/>
                  <path id="Path_2460" data-name="Path 2460" d="M390.884,378.272l.558,16.343H499.51l-32.631-22.472-45.331-1.362Z" transform="translate(-389.207 -15.319)" fill="#ebe0cc"/>
                  <path id="Path_2461" data-name="Path 2461" d="M473.92,301.278l14.621,76.268,67.383-21.789s15.893-47.668,13.986-48.349S473.92,301.278,473.92,301.278Z" transform="translate(-318.482 -74.518)" fill="#ebe0cc"/>
                  <path id="Path_2462" data-name="Path 2462" d="M485.935,369.69l7.628,50.391L556.5,422.8l5.086-85.12Z" transform="translate(-308.249 -43.509)" fill="#ebe0cc"/>
                  <path id="Path_2463" data-name="Path 2463" d="M511.526,370.414l-5.721,25.2-48.313-6.81-16.528-16.343Z" transform="translate(-346.553 -15.633)" fill="#ebe0cc"/>
                </g>
              </g>
            </g>
          </g>
          <g id="Group_438" data-name="Group 438" transform="translate(0 18.573)">
            <g id="Group_437" data-name="Group 437">
              <g id="Group_435" data-name="Group 435" transform="translate(0 20.736)">
                <path id="Path_2464" data-name="Path 2464" d="M373.217,125.889h46.458l-.587,72.371H372.4Z" transform="translate(-372.396 -125.889)" fill="#fff"/>
                <path id="Path_2465" data-name="Path 2465" d="M398.2,125.889h46.457l-.352,72.371H397.611Z" transform="translate(-350.92 -125.889)" fill="#ffda40"/>
                <path id="Path_2466" data-name="Path 2466" d="M423.178,125.889h46.457l-.117,72.371H422.826Z" transform="translate(-329.443 -125.889)" fill="#fff"/>
                <path id="Path_2467" data-name="Path 2467" d="M448.158,125.889h46.458l.117,72.371H448.041Z" transform="translate(-307.966 -125.889)" fill="#ffda40"/>
                <path id="Path_2468" data-name="Path 2468" d="M473.193,125.889H519.65L520,198.259H473.311Z" transform="translate(-286.543 -125.889)" fill="#fff"/>
                <path id="Path_2469" data-name="Path 2469" d="M498.282,125.889h46.457l.586,72.371H498.634Z" transform="translate(-265.174 -125.889)" fill="#ffda40"/>
                <path id="Path_2470" data-name="Path 2470" d="M523.37,125.889h46.458l.821,72.371H523.957Z" transform="translate(-243.806 -125.889)" fill="#fff"/>
              </g>
              <g id="Group_436" data-name="Group 436" transform="translate(0.821)">
                <path id="Path_2471" data-name="Path 2471" d="M388.345,114.69h42.027L419.3,135.426H372.839Z" transform="translate(-372.839 -114.69)" fill="#e8e8e8"/>
                <path id="Path_2472" data-name="Path 2472" d="M409,114.69H451.03l-6.645,20.736H397.928Z" transform="translate(-351.471 -114.69)" fill="#e6c43a"/>
                <path id="Path_2473" data-name="Path 2473" d="M429.661,114.69h42.027l-2.215,20.736H423.016Z" transform="translate(-330.102 -114.69)" fill="#e8e8e8"/>
                <path id="Path_2474" data-name="Path 2474" d="M450.32,114.69h42.028l2.215,20.736H448.1Z" transform="translate(-308.733 -114.69)" fill="#e6c43a"/>
                <path id="Path_2475" data-name="Path 2475" d="M472,114.69h42.027l6.646,20.736H474.212Z" transform="translate(-288.383 -114.69)" fill="#e8e8e8"/>
                <path id="Path_2476" data-name="Path 2476" d="M494.693,114.69H536.72L547.8,135.426H501.339Z" transform="translate(-269.052 -114.69)" fill="#e6c43a"/>
                <path id="Path_2477" data-name="Path 2477" d="M517.389,114.69h42.028l15.505,20.736H528.465Z" transform="translate(-249.721 -114.69)" fill="#e8e8e8"/>
              </g>
              <path id="Path_2478" data-name="Path 2478" d="M395.741,188.316a23.346,23.346,0,0,0,23.347-23.345H372.4A23.344,23.344,0,0,0,395.741,188.316Z" transform="translate(-372.396 -71.865)" fill="#e8e8e8"/>
              <path id="Path_2479" data-name="Path 2479" d="M420.958,188.316A23.345,23.345,0,0,0,444.3,164.971H397.611A23.346,23.346,0,0,0,420.958,188.316Z" transform="translate(-350.919 -71.865)" fill="#e6c43a"/>
              <path id="Path_2480" data-name="Path 2480" d="M446.173,188.316a23.344,23.344,0,0,0,23.345-23.345H422.826A23.346,23.346,0,0,0,446.173,188.316Z" transform="translate(-329.443 -71.865)" fill="#e8e8e8"/>
              <path id="Path_2481" data-name="Path 2481" d="M471.5,188.2a23.346,23.346,0,0,0,23.347-23.345H448.158A23.345,23.345,0,0,0,471.5,188.2Z" transform="translate(-307.867 -71.963)" fill="#e6c43a"/>
              <path id="Path_2482" data-name="Path 2482" d="M496.72,188.2a23.344,23.344,0,0,0,23.345-23.345H473.373A23.346,23.346,0,0,0,496.72,188.2Z" transform="translate(-286.39 -71.963)" fill="#e8e8e8"/>
              <path id="Path_2483" data-name="Path 2483" d="M521.817,188.316a23.344,23.344,0,0,0,23.347-23.345H498.472A23.344,23.344,0,0,0,521.817,188.316Z" transform="translate(-265.012 -71.865)" fill="#e6c43a"/>
              <path id="Path_2484" data-name="Path 2484" d="M547.034,188.316a23.344,23.344,0,0,0,23.345-23.345H523.687A23.346,23.346,0,0,0,547.034,188.316Z" transform="translate(-243.536 -71.865)" fill="#e8e8e8"/>
            </g>
          </g>
        </g>
        <g id="Group_440" data-name="Group 440" transform="translate(38.879 157.066)">
          <path id="Path_2485" data-name="Path 2485" d="M414.746,312.364a21.354,21.354,0,0,0-21.354,21.354c0,11.794,21.354,36.035,21.354,36.035S436.1,345.512,436.1,333.718A21.354,21.354,0,0,0,414.746,312.364Zm0,29.361a8.9,8.9,0,1,1,8.9-8.9A8.9,8.9,0,0,1,414.746,341.725Z" transform="translate(-393.392 -84.817)" fill="#ff6430"/>
          <path id="Path_2486" data-name="Path 2486" d="M496.667,189.481a21.356,21.356,0,0,0-21.354,21.356c0,11.794,21.354,36.035,21.354,36.035s21.354-24.241,21.354-36.035A21.356,21.356,0,0,0,496.667,189.481Zm0,29.363a8.9,8.9,0,1,1,8.9-8.9A8.9,8.9,0,0,1,496.667,218.844Z" transform="translate(-323.617 -189.481)" fill="#ff6430"/>
          <path id="Path_2487" data-name="Path 2487" d="M408.455,353.37c8.646-45.719,25.824-63.266,40.54-70.618,24.53-12.255,48.89.491,74.54-17,14.629-9.975,22.126-24.636,26.156-35.309" transform="translate(-380.562 -154.593)" fill="none" stroke="#ff6430" stroke-miterlimit="10" stroke-width="1" stroke-dasharray="6"/>
        </g>
        <path id="Path_2488" data-name="Path 2488" d="M558.435,233.4s-.444,12.444-1.555,20.888" transform="translate(-215.264 4.992)" fill="none" stroke="#29201d" stroke-miterlimit="10" stroke-width="0.25"/>
      </g>
      <g id="Group_421" data-name="Group 421" transform="translate(1334.377 217.663)">
        <g id="Group_420" data-name="Group 420" transform="translate(0)">
          <path id="Path_2391" data-name="Path 2391" d="M979.814,704.577l-7.406,12L969.97,720l13.089,7.07,8.843-14.556Z" transform="translate(-758.036 -400.6)" fill="#efc79c"/>
          <path id="Path_2392" data-name="Path 2392" d="M978.914,620.179s78.848,24.737,89.721,37.924-60.123,100.013-60.123,100.013l-16.239-9.728s23.119-56.96,43.2-66.946c4.007-6.883-37.033-11.734-71.666-13.895s-28.2-22.807-17.012-48.138C967.076,610.735,978.914,620.179,978.914,620.179Z" transform="translate(-773.625 -443.762)" fill="#1d3d63"/>
          <path id="Path_2393" data-name="Path 2393" d="M959.4,548.873s8.349-17.178,9.5-27.076c12.062,15.651,21.856,23.187,22.082,23.871-9.588,10.247-11.731,26.155-11.731,26.155Z" transform="translate(-763.17 -489.409)" fill="#f7c58d"/>
          <g id="Group_414" data-name="Group 414" transform="translate(36.172 80.009)">
            <path id="Path_2394" data-name="Path 2394" d="M891.586,678.277l-13.1-.016a11.193,11.193,0,0,0-9.028,4.556l-11.052,15a11.2,11.2,0,0,0-.44,12.638l5.452,8.59Z" transform="translate(-849.473 -493.395)" fill="#f35"/>
            <path id="Path_2395" data-name="Path 2395" d="M857.281,702.95l11.052-15.006a11.2,11.2,0,0,1,9.028-4.556l10.676.013,3.539-5.125-13.1-.016a11.19,11.19,0,0,0-9.028,4.556l-11.052,15a11.15,11.15,0,0,0-2.15,6.869A11.108,11.108,0,0,1,857.281,702.95Z" transform="translate(-849.464 -493.395)" fill="#ff7190"/>
            <g id="Group_406" data-name="Group 406" transform="translate(298.081 223.465)">
              <ellipse id="Ellipse_46" data-name="Ellipse 46" cx="49.156" cy="49.156" rx="49.156" ry="49.156" transform="translate(0 6.223)" fill="#333"/>
              <ellipse id="Ellipse_47" data-name="Ellipse 47" cx="37.932" cy="37.932" rx="37.932" ry="37.932" transform="translate(11.224 17.447)" fill="#ffecc5"/>
              <ellipse id="Ellipse_48" data-name="Ellipse 48" cx="29.199" cy="29.199" rx="29.199" ry="29.199" transform="translate(19.957 26.18)" fill="#e2e2e2"/>
              <ellipse id="Ellipse_49" data-name="Ellipse 49" cx="25.166" cy="25.166" rx="25.166" ry="25.166" transform="translate(23.99 30.214)" fill="#a5a5a5"/>
              <rect id="Rectangle_355" data-name="Rectangle 355" width="11.575" height="58.648" transform="translate(24.148 4.016) rotate(-20.302)" fill="#e2e2e2"/>
              <ellipse id="Ellipse_50" data-name="Ellipse 50" cx="7.585" cy="7.585" rx="7.585" ry="7.585" transform="translate(41.571 47.794)" fill="#333"/>
              <ellipse id="Ellipse_51" data-name="Ellipse 51" cx="3.849" cy="3.849" rx="3.849" ry="3.849" transform="translate(45.307 51.53)" fill="#7f7f7f"/>
            </g>
            <g id="Group_407" data-name="Group 407" transform="translate(22.033 229.325)">
              <ellipse id="Ellipse_52" data-name="Ellipse 52" cx="49.156" cy="49.156" rx="49.156" ry="49.156" fill="#333"/>
              <ellipse id="Ellipse_53" data-name="Ellipse 53" cx="37.932" cy="37.932" rx="37.932" ry="37.932" transform="translate(11.223 11.223)" fill="#ffecc5"/>
              <ellipse id="Ellipse_54" data-name="Ellipse 54" cx="29.199" cy="29.199" rx="29.199" ry="29.199" transform="translate(19.957 19.957)" fill="#e2e2e2"/>
              <ellipse id="Ellipse_55" data-name="Ellipse 55" cx="25.166" cy="25.166" rx="25.166" ry="25.166" transform="translate(23.99 23.99)" fill="#a5a5a5"/>
              <ellipse id="Ellipse_56" data-name="Ellipse 56" cx="7.585" cy="7.585" rx="7.585" ry="7.585" transform="translate(41.57 41.571)" fill="#333"/>
              <ellipse id="Ellipse_57" data-name="Ellipse 57" cx="3.849" cy="3.849" rx="3.849" ry="3.849" transform="translate(45.307 45.306)" fill="#7f7f7f"/>
            </g>
            <g id="Group_408" data-name="Group 408" transform="translate(295.709 192.91)">
              <path id="Path_2396" data-name="Path 2396" d="M1063.238,735.387s40.259-19.782,82.99-8.782c-.312-22.229-17.372-52.345-68.34-40.1S1063.238,735.387,1063.238,735.387Z" transform="translate(-1050.694 -683.675)" fill="#ffb206"/>
              <path id="Path_2397" data-name="Path 2397" d="M1074.486,688.229c-8.715,2.094-14.86,4.9-19.086,8.119a18.758,18.758,0,0,0-3.7,5.412c4.151-2.788,9.868-5.23,17.645-7.1,42.9-10.3,61.756,9.4,66.842,29.15,2.141.339,4.294.743,6.459,1.229C1140.765,703.274,1122.981,676.58,1074.486,688.229Z" transform="translate(-1050.205 -682.837)" fill="#ffcf03"/>
            </g>
            <path id="Path_2398" data-name="Path 2398" d="M1052.206,584.809s10.844,19.137.9,33.138C1044.556,615.833,1052.206,584.809,1052.206,584.809Z" transform="translate(-755.781 -538.802)" fill="#efefef"/>
            <path id="Path_2399" data-name="Path 2399" d="M1083.629,723.056l15.735-4.425s-14.646-44.134-53.2-110.184c-3.422,1.477-7.287,2.652-7.287,2.652Z" transform="translate(-760.728 -527.317)" fill="#ffb206"/>
            <path id="Path_2400" data-name="Path 2400" d="M1029.278,611.746s34,81.236,14.1,125.452c-3.908,15.055,15.094,10.976,15.094,10.976s21.764-48.987-23.542-139.668C1032.818,607.249,1029.278,611.746,1029.278,611.746Z" transform="translate(-765.392 -527.396)" fill="#ffb206"/>
            <path id="Path_2401" data-name="Path 2401" d="M1050.322,658.82l-108.062-.143c-17.327-.024-72.073,23.615-89.04,97l105.954.14C972.4,755.836,975,779.549,975,779.549l132.619.175c15.5.021,42.939-59.675,28.388-90.244-6.425,31.909-20.582,48.3-36.547,52.844-12.276,3.49-48.278,3.174-64.254,2.841a10.288,10.288,0,0,1-9.823-8.05c-1.988-8.853-4.4-23.676-2.013-36.383C1027.039,681.13,1048.472,678.423,1050.322,658.82Z" transform="translate(-850.935 -502.911)" fill="#ffb206"/>
            <g id="Group_409" data-name="Group 409" transform="translate(0 179.747)">
              <path id="Path_2402" data-name="Path 2402" d="M851.682,751.938l129.264.171s18.862-40.328,3.845-63.26-76.923-15.832-103.285,7.388S851.682,751.938,851.682,751.938Z" transform="translate(-851.682 -674.816)" fill="#ffcf03"/>
              <path id="Path_2403" data-name="Path 2403" d="M965.978,749.991c3.746-9.045,14.648-39.129,2.53-57.49-13.645-20.673-67.66-15.666-94.759,3.725,28.683-13.813,71.822-15.471,83.807,2.688,10.021,15.183,4.3,38.376-.1,51.065Z" transform="translate(-840.96 -672.704)" fill="#ffe10b"/>
            </g>
            <g id="Group_411" data-name="Group 411" transform="translate(120.365 82.607)">
              <path id="Path_2404" data-name="Path 2404" d="M932.688,789.674l108.062.143c23.6.031,70.134-36.5,60.813-92.594s-23.648-82.787-23.648-82.787l16.421-4.994s31.382,61.14,38.2,79.388,17.01,67.276-19.967,101.083c-15.064,12.633-26.7,17.747-43.795,17.725l-131.316-.174Z" transform="translate(-932.688 -609.441)" fill="#ffcf03"/>
              <g id="Group_410" data-name="Group 410" transform="translate(148.466)">
                <path id="Path_2405" data-name="Path 2405" d="M1083.983,688.829c-6.814-18.248-38.2-79.388-38.2-79.388l-6.128,1.863c7.544,15.709,29.3,61.676,34.062,79.107,5.135,18.789,16.043,69.156-20.933,102.963-7.186,6.025-13.593,10.322-20.183,13.186,10.993-2.08,20.266-7.3,31.41-16.648C1100.994,756.105,1090.8,707.075,1083.983,688.829Z" transform="translate(-1032.606 -609.441)" fill="#ffe10b"/>
              </g>
              <path id="Path_2406" data-name="Path 2406" d="M1043.138,793.115c23.6.031,71.644-38.154,62.322-94.25-8.414-50.64-22.872-81.028-25.6-86.46l-1.941.59s14.327,26.692,23.648,82.787-37.215,92.625-60.812,92.594l-108.062-.143,1.269,4.737Z" transform="translate(-932.688 -608.001)" fill="#4c4c4c"/>
            </g>
            <path id="Path_2407" data-name="Path 2407" d="M920.371,644.346s-17.129,23.232.825,23.256l100.083.132c4.9.006,11.6-18.793,2.534-19.49s-37.107,2.688-58.3-2.128S926.879,636.832,920.371,644.346Z" transform="translate(-821.891 -511.825)" fill="#4c4c4c"/>
            <path id="Path_2408" data-name="Path 2408" d="M1033.11,629.134s21.9-7.152,24.632-7.832,8.551-1.357,8.551-1.357-3.556-26.337.045-33.685c-7.685-7.363-18.459-4.982-29.759,5.6s-15.233,12.462-14.382,15.37S1033.11,629.134,1033.11,629.134Z" transform="translate(-768.888 -540.167)" fill="#ffcf03"/>
            <g id="Group_412" data-name="Group 412" transform="translate(265.249 18.943)">
              <path id="Path_2409" data-name="Path 2409" d="M1030.971,610.188l-.776-1.312,15.522-9.175a4.729,4.729,0,0,0,2.226-3.123l6.1-29.982,1.495.3-6.105,29.981a6.263,6.263,0,0,1-2.944,4.134Z" transform="translate(-1030.195 -566.595)" fill="#a5a5a5"/>
            </g>
            <ellipse id="Ellipse_58" data-name="Ellipse 58" cx="9.447" cy="8.891" rx="9.447" ry="8.891" transform="translate(256.714 77.587) rotate(-89.925)" fill="#efc100"/>
            <path id="Path_2410" data-name="Path 2410" d="M1016.413,596.249s9.953-.331,13.568-3.631,7.588-3.2,11.227-.143,6.486,9.153,4.914,12.551-5.336,4.875-7.955,3.96c1.022,2.4-4.639,2.753-7.45,1.749s-9.419-2.684-12.041-2.117C1016.4,605.651,1016.413,596.249,1016.413,596.249Z" transform="translate(-771.642 -536.202)" fill="#21457a"/>
            <path id="Path_2411" data-name="Path 2411" d="M1027,613.2c2.04,3.939,3.715,7.1,3.715,7.1s21.9-7.152,24.632-7.832,8.551-1.357,8.551-1.357-.651-4.829-1.113-10.926C1054.129,609.319,1040.423,612.407,1027,613.2Z" transform="translate(-766.496 -531.332)" fill="#ffb206"/>
            <ellipse id="Ellipse_59" data-name="Ellipse 59" cx="4.959" cy="4.959" rx="4.959" ry="4.959" transform="translate(259.636 61.268)" fill="#353535"/>
            <g id="Group_413" data-name="Group 413" transform="translate(278.812 0)">
              <ellipse id="Ellipse_60" data-name="Ellipse 60" cx="14.286" cy="5.619" rx="14.286" ry="5.619" transform="translate(0 28.168) rotate(-80.352)" fill="#ffcf03"/>
              <ellipse id="Ellipse_61" data-name="Ellipse 61" cx="11.38" cy="3.572" rx="11.38" ry="3.572" transform="translate(1.614 25.495) rotate(-80.352)" fill="#efefef"/>
            </g>
          </g>
          <g id="Group_415" data-name="Group 415" transform="translate(156.577 59.463)">
            <path id="Path_2412" data-name="Path 2412" d="M990.711,707.107l-5.489,12.988-1.886,3.759,14.014,4.99,6.518-15.735Z" transform="translate(-908.118 -458.834)" fill="#ffdaae"/>
            <path id="Path_2413" data-name="Path 2413" d="M982.7,622.948s81.145,15.643,93.44,27.514-46.924,108.826-46.924,108.826l-17.238-7.825s15.039-61.857,33.863-74.056c3.2-7.291-38.125-7.462-72.78-5.684s-46.022-22.4-37.78-48.838C954.443,611.969,982.7,622.948,982.7,622.948Z" transform="translate(-932.715 -502.105)" fill="#21457a"/>
            <path id="Path_2414" data-name="Path 2414" d="M1016.415,756.755s59.22-96.954,46.924-108.826c-9.089-8.776-55.8-19.611-79.542-24.666a37.283,37.283,0,0,0-24.74,10.819c18.813-3.908,78.64,9.85,90.263,12.944s12.47,9.079,8.7,19.162c-3.648,9.741-35.92,75.215-44.45,89.273Z" transform="translate(-919.916 -499.572)" fill="#275389"/>
            <path id="Path_2415" data-name="Path 2415" d="M933.921,666.786s-7.984-87.159,38.12-126.767c11.394,5.03,20.495,18.264,25.04,29.67s1.257,83.9-.119,89.368c-.358,1.426-3.85,3.1-9.138,4.657C972.833,668.138,947.395,672.2,933.921,666.786Z" transform="translate(-932.385 -540.019)" fill="#52a5f6"/>
          </g>
          <path id="Path_2416" data-name="Path 2416" d="M959.062,657.447s17.565-7.419,20.117-42.354,2.12-51.227,2.12-51.227,8.172,25.991,8.6,43.718-2.328,37.328-5.759,45.759S959.062,657.447,959.062,657.447Z" transform="translate(-763.336 -468.969)" fill="#21457a"/>
          <path id="Path_2417" data-name="Path 2417" d="M961.965,574.328c2.542,15.346,11.036,52.431,17.942,59.581,11.413,11.816,66.35-3.73,66.35-3.73l-1.8-16.682c-17.1-.25-40.358-.3-44-1.9s-10.948-37.672-12.99-45.2-7.791-12.108-17.365-11.664S961.066,568.9,961.965,574.328Z" transform="translate(-762.148 -473.421)" fill="#67b7f9"/>
          <path id="Path_2418" data-name="Path 2418" d="M938.436,664.9s-1.3-50.156,7.615-69.841c15.08-25.149,27.064-36.743,34.42-39.034s13.516,2.134,13.516,2.134-1.8-4.475-3.835-6.388-10.7-4.031-18.4,1.6-28.108,30.18-31.987,39.55c-5.443,13.149-6.276,25.979-6.526,70.431C934.416,665.741,938.436,664.9,938.436,664.9Z" transform="translate(-775.882 -475.835)" fill="#21457a"/>
          <path id="Path_2419" data-name="Path 2419" d="M988.142,715.847s2.847,7.281,12.875,6.947c6.6,5.9,23.527,6.1,29.455,5.877s3.868,6.844-4.571,9.113-43.773.284-47.421.279S980.328,720.055,988.142,715.847Z" transform="translate(-754.461 -395.124)"/>
          <g id="Group_416" data-name="Group 416" transform="translate(200.319 7.634)">
            <path id="Path_2420" data-name="Path 2420" d="M1007.848,541.59c.718-2.258-3.239-6.588.018-13.423s-5.625-12.746-5.625-12.746-.18.25-.482.675c-4.027-6.642-10.351-10.948-17.492-10.957-12.193-.016-22.1,12.449-22.114,27.841s9.86,27.392,22.053,27.409c.334,0,.648.447.978.429,4.829,3.159,11.468.313,12.3-1.887,1.03-2.734,1.673-4.358,3.345-4.355s1.238-2.135,0-3.2c.9.3,2.731.128,2.432-.514s.3-2.009.759-5.5C1008.407,547.252,1009.129,542.787,1007.848,541.59Z" transform="translate(-962.153 -505.138)" fill="#f7c58d"/>
          </g>
          <path id="Path_2421" data-name="Path 2421" d="M960.337,532.413l.526,7.609s12.881,3.865,16.654-3.783S960.337,532.413,960.337,532.413Z" transform="translate(-762.716 -484.715)" fill="#353535"/>
          <path id="Path_2422" data-name="Path 2422" d="M986.2,522.444s5.758-1.816,7.75.01c.227.627-.437,1.424-1.516,1.195S987.885,522.588,986.2,522.444Z" transform="translate(-750.148 -489.486)" fill="#353535"/>
          <path id="Path_2423" data-name="Path 2423" d="M1001.951,528.353c-1.762-.1-12.343-.052-16.235-.031l.015-.043-6.926-2.232-.42,1.3,6.021,1.941c.284,4.272-3.3,9.263-4.979,11.355l-3.19-4.474-1.114.8,3.507,4.917c.3,1.144,2.1,6.693,9.839,10.189C997.933,548.689,1004.679,533.827,1001.951,528.353Z" transform="translate(-755.533 -487.344)" fill="#bbe0ff"/>
          <path id="Path_2424" data-name="Path 2424" d="M985.18,518.966c.73.116,10.816,1.211,14.458,6.232,2.942-2.519-1.13-6.727-1.13-6.727Z" transform="translate(-750.646 -491.025)" fill="#353535"/>
          <path id="Path_2425" data-name="Path 2425" d="M994.492,527.842s19.174,2.377,24.984,4.608c3.269-14.529-6.8-26.706-22.7-31.172s-32.6,3.134-38.1,18-1.909,21.557,1.674,27.132c2.9,4.514,7.424,7.8,20.281,7.037,8.465-.5,8.507-12.66,9.683-17.171C991.521,531.662,991.92,527.224,994.492,527.842Z" transform="translate(-764.896 -499.998)" fill="#ffcf03"/>
          <g id="Group_417" data-name="Group 417" transform="translate(203.945)">
            <path id="Path_2426" data-name="Path 2426" d="M992.262,501.259a32.7,32.7,0,0,0-27.669,4.536,33.31,33.31,0,0,1,19.874-.551c13.731,3.838,23.119,13.434,23.337,25.337a49.877,49.877,0,0,1,7.2,1.82C1018.251,517.868,1008.162,505.7,992.262,501.259Z" transform="translate(-964.593 -500)" fill="#ffe10b"/>
          </g>
          <path id="Path_2427" data-name="Path 2427" d="M990.784,517.385c-2.572-.62-2.972,3.819-4.174,8.434-1.177,4.511-1.22,16.67-9.683,17.171-9.379.556-14.312-1.046-17.428-3.7,2.963,3.826,7.774,6.431,19.362,5.744,8.465-.5,8.507-12.66,9.683-17.171,1.2-4.615,1.6-9.053,4.174-8.435,0,0,19.174,2.377,24.984,4.608a25.165,25.165,0,0,0,.453-2.658C1012.132,519.17,990.784,517.385,990.784,517.385Z" transform="translate(-763.124 -491.581)" fill="#353535"/>
          <path id="Path_2428" data-name="Path 2428" d="M1012.084,520.176a60.856,60.856,0,0,1-16.725,40.354c-5.15,2.535-23.03-4.155-20.375-21.966,1.88-12.606-.046-21.79,3.832-23.724S1000.686,520.5,1012.084,520.176Z" transform="translate(-755.729 -492.943)" fill="#d2f0ff" opacity="0.49"/>
          <g id="Group_418" data-name="Group 418" transform="translate(12.725 220.924)">
            <path id="Path_2429" data-name="Path 2429" d="M992.533,672.822l-50.826-.067a10.406,10.406,0,0,1-8.871-5.039l-6.207-10.374a3.533,3.533,0,0,0-3.01-1.71l-84.3-.11a3.42,3.42,0,0,1,.009-6.839l84.3.11a10.409,10.409,0,0,1,8.871,5.039l6.207,10.375a3.53,3.53,0,0,0,3.01,1.71l50.826.067a3.42,3.42,0,1,1-.009,6.839Z" transform="translate(-835.902 -648.682)" fill="#4c4c4c"/>
          </g>
          <g id="Group_419" data-name="Group 419" transform="translate(0 113.508)">
            <rect id="Rectangle_356" data-name="Rectangle 356" width="115.264" height="107.037" rx="6.137" transform="translate(2.061 0.36) rotate(0.075)" fill="#ffb206"/>
            <path id="Path_2430" data-name="Path 2430" d="M943.966,602.543l.021-16.642a9.119,9.119,0,0,0-9.107-9.132l-97.025-.128a9.12,9.12,0,0,0-9.131,9.108l-.022,16.642Z" transform="translate(-826.675 -576.27)" fill="#ea9c00"/>
            <path id="Path_2431" data-name="Path 2431" d="M946.666,598.25l.016-12.273a9.441,9.441,0,0,0-9.428-9.453l-100.447-.132a9.441,9.441,0,0,0-9.453,9.428l-.016,12.273Z" transform="translate(-827.338 -576.391)" fill="#ffcf03"/>
          </g>
        </g>
      </g>
    </g>
  </g>
</svg>
